<svg id="Layer_1" enable-background="new 0 0 70 70" viewBox="0 0 70 70" xmlns="http://www.w3.org/2000/svg"><g><g><g><g><path d="m27.25 60.29-3.08 3.08c-4.84 4.84-12.7 4.84-17.54 0-4.84-4.84-4.84-12.7 0-17.54l3.08-3.08z" fill="#e5e8f9"/></g></g><g><g><path d="m27.25 60.29-3.08 3.08c-4.85 4.85-12.69 4.85-17.53.01l-.01-.01c-1.54-1.54-2.58-3.37-3.14-5.32.13.14.27.29.42.43 4.85 4.85 12.69 4.85 17.53.01l2-2z" fill="#d6dbf2"/></g></g><g><g><path d="m8.45 59.26c-.13 0-.25-.06-.32-.18-1.62-2.63-1.69-5.94-.19-8.64.1-.18.33-.25.51-.14.18.1.25.33.15.51-1.37 2.46-1.31 5.48.17 7.88.11.18.05.41-.12.52-.07.03-.13.05-.2.05z" fill="#fff"/></g></g><g><g><path d="m35.92 10.69-18.54 31.4-3.51-3.51 12.93-32.37c1.36-3.4 5.75-4.3 8.34-1.71 1.64 1.64 1.96 4.19.78 6.19z" fill="#d6dbf2"/></g></g><g><g><path d="m17.38 42.09-3.5-3.51 2.45-6.15 4.25 4.24z" fill="#c5ceea"/></g></g><g><g><path d="m43.18 19.13-22.29 26.47-3.51-3.51 17.2-29.14c1.69-2.87 5.64-3.37 7.99-1.01l.3.3c1.88 1.87 2.01 4.86.31 6.89z" fill="#e5e8f9"/></g></g><g><g><path d="m50.2 27.39-25.8 21.72-3.51-3.51 21.72-25.8c1.92-2.28 5.39-2.43 7.5-.32l.41.41c2.12 2.11 1.97 5.57-.32 7.5z" fill="#d6dbf2"/></g></g><g><g><path d="m29.81 44.55-5.41 4.56-3.51-3.51 3.94-4.68.61.61c1.29 1.29 2.77 2.3 4.37 3.02z" fill="#c5ceea"/></g></g><g><g><path d="m50.44 27.17c-.08.08-.16.15-.25.22l-21.38 17.82z" fill="#a9dcea"/></g></g><g><g><path d="m57.05 35.41-29.14 17.2-3.51-3.51 26.48-22.29c2.02-1.7 5.01-1.58 6.89.3l.3.3c2.35 2.37 1.85 6.31-1.02 8z" fill="#e5e8f9"/></g></g><g><g><path d="m63.79 43.2-32.38 12.93-3.51-3.51 31.41-18.54c2-1.18 4.55-.86 6.19.79 2.59 2.58 1.69 6.97-1.71 8.33z" fill="#d6dbf2"/></g></g><g><g><path d="m67 38.45c0 1.98-1.14 3.92-3.21 4.75l-32.37 12.93-3.51-3.51 13.12-7.74c.08-.02.16-.05.25-.09l23.4-9.33c.33-.13.64-.3.92-.48-.02-.04-.05-.07-.08-.1 1 1 1.48 2.29 1.48 3.57z" fill="#c5ceea"/></g></g><g><g><path d="m20.89 45.6-3.51-3.51 3.2-5.42 4.25 4.25z" fill="#d6dbf2"/></g></g><g><g><path d="m41.02 44.87-13.12 7.74-3.51-3.51 5.41-4.56c3.5 1.57 7.53 1.75 11.22.33z" fill="#d6dbf2"/></g></g><g><g><path d="m23.97 20.21c-.06 0-.12-.01-.17-.04-.18-.1-.25-.32-.16-.51l4.17-7.95c.1-.18.32-.26.51-.16.18.1.25.32.16.51l-4.17 7.95c-.07.13-.2.2-.34.2z" fill="#fff"/></g></g><g><g><path d="m18.92 36.49h4.36v24.8h-4.36z" fill="#666" transform="matrix(.707 -.707 .707 .707 -28.394 29.244)"/></g></g><g><g><path d="m25.79 53.06h4.36v5.39h-4.36z" fill="#595857" transform="matrix(.707 -.707 .707 .707 -31.237 36.107)"/></g></g><g><g><path d="m15.84 39.58h4.36v24.8h-4.36z" fill="#ff4848" transform="matrix(.707 -.707 .707 .707 -31.475 27.968)"/></g></g><g><g><path d="m22.71 56.15h4.36v5.39h-4.36z" fill="#f91c1c" transform="matrix(.707 -.707 .707 .707 -34.318 34.831)"/></g></g></g></g></svg>