<svg id="Layer_1" enable-background="new 0 0 512 512" height="512" viewBox="0 0 512 512" width="512" xmlns="http://www.w3.org/2000/svg"><g id="XMLID_2575_"><path id="XMLID_1799_" d="m10 10h492v492h-492z" fill="#ffcd69"/><path id="XMLID_1665_" d="m54 54h404v404h-404z" fill="#ffda8f"/><circle id="XMLID_1021_" cx="155" cy="357" fill="#fff" r="44"/><circle id="XMLID_1737_" cx="256" cy="357" fill="#fff" r="44"/><circle id="XMLID_1740_" cx="357" cy="357" fill="#6d92ac" r="44"/><circle id="XMLID_1761_" cx="155" cy="155" fill="#fff" r="44"/><circle id="XMLID_1743_" cx="357" cy="155" fill="#6d92ac" r="44"/><circle id="XMLID_1767_" cx="357" cy="256" fill="#fff" r="44"/><g id="XMLID_2_"><path id="XMLID_547_" d="m54 44c-5.522 0-10 4.477-10 10v404c0 5.523 4.478 10 10 10h404c5.522 0 10-4.477 10-10v-404c0-5.523-4.478-10-10-10zm356.057 121h37.943v81h-37.943c-3.505-18.633-16.603-33.914-33.957-40.5 17.354-6.586 30.452-21.867 33.957-40.5zm0 182c-3.505-18.633-16.603-33.914-33.957-40.5 17.354-6.586 30.452-21.867 33.957-40.5h37.943v81zm-346.057 0v-81h81v37.943c-21.769 4.095-38.962 21.287-43.057 43.057zm37.943-182c4.095 21.77 21.287 38.962 43.057 43.057v37.943h-81v-81zm53.057-44c18.744 0 33.993 15.246 34 33.987 0 .004-.001.009-.001.013s.001.009.001.013c-.007 18.741-15.256 33.987-34 33.987-18.748 0-34-15.252-34-34s15.252-34 34-34zm91 44v81h-81v-37.943c21.769-4.095 38.962-21.287 43.057-43.057zm57.943 0c3.505 18.633 16.603 33.914 33.957 40.5-17.354 6.586-30.452 21.867-33.957 40.5h-37.943v-81zm2.557 172.9c-6.586-17.354-21.867-30.452-40.5-33.957v-37.943h37.943c3.505 18.633 16.603 33.914 33.957 40.5-14.433 5.477-25.923 16.967-31.4 31.4zm-50.5 53.1c-18.748 0-34-15.252-34-34s15.252-34 34-34 34 15.252 34 34-15.252 34-34 34zm-50.5-53.1c-6.586-17.354-21.867-30.452-40.5-33.957v-37.943h81v37.943c-18.633 3.505-33.914 16.603-40.5 33.957zm117.5-81.9c0-18.748 15.252-34 34-34s34 15.252 34 34-15.252 34-34 34-34-15.252-34-34zm-168 67c18.748 0 34 15.252 34 34s-15.252 34-34 34-34-15.252-34-34 15.252-34 34-34zm10 87.057c18.633-3.505 33.914-16.603 40.5-33.957 6.586 17.354 21.867 30.452 40.5 33.957v37.943h-81zm101 0c18.633-3.505 33.914-16.603 40.5-33.957 6.586 17.354 21.867 30.452 40.5 33.957v37.943h-81zm91-19.057c-18.748 0-34-15.252-34-34s15.252-34 34-34 34 15.252 34 34-15.252 34-34 34zm0-202c-18.748 0-34-15.252-34-34s15.252-34 34-34 34 15.252 34 34-15.252 34-34 34zm-10-87.057c-21.769 4.095-38.962 21.287-43.057 43.057h-37.943v-81h81zm-101 43.057h-37.943c-4.095-21.77-21.288-38.962-43.057-43.057v-37.943h81zm-101-81v37.943c-21.769 4.095-38.962 21.287-43.057 43.057h-37.943v-81zm-81 303h37.943c4.095 21.77 21.287 38.962 43.057 43.057v37.943h-81zm303 81v-37.943c21.769-4.095 38.962-21.287 43.057-43.057h37.943v81zm81-303h-37.943c-4.095-21.77-21.288-38.962-43.057-43.057v-37.943h81z"/><path id="XMLID_731_" d="m502 0h-201c-5.522 0-10 4.477-10 10s4.478 10 10 10h191v472h-472v-472h191c5.522 0 10-4.477 10-10s-4.478-10-10-10h-201c-5.522 0-10 4.477-10 10v492c0 5.523 4.478 10 10 10h492c5.522 0 10-4.477 10-10v-492c0-5.523-4.478-10-10-10z"/><path id="XMLID_732_" d="m256 20c2.63 0 5.21-1.07 7.069-2.93 1.861-1.86 2.931-4.44 2.931-7.07s-1.07-5.21-2.931-7.07c-1.859-1.86-4.439-2.93-7.069-2.93s-5.21 1.07-7.07 2.93c-1.861 1.86-2.93 4.44-2.93 7.07s1.069 5.21 2.93 7.07 4.44 2.93 7.07 2.93z"/></g></g></svg>